<?xml version="1.0" encoding="utf-8"?>
<!-- Generator: Adobe Illustrator 23.0.3, SVG Export Plug-In . SVG Version: 6.00 Build 0)  -->
<svg version="1.1" id="レイヤー_2" xmlns="http://www.w3.org/2000/svg" xmlns:xlink="http://www.w3.org/1999/xlink" x="0px"
	 y="0px" viewBox="0 0 259.18 249.81" style="enable-background:new 0 0 259.18 249.81;" xml:space="preserve">
<style type="text/css">
	.st0{fill:#FFFFFF;stroke:#FFFFFF;stroke-width:5;stroke-miterlimit:10;}
	.st1{fill:none;stroke:#FFFFFF;stroke-width:5;stroke-miterlimit:10;}
	.st2{fill:#FFFFFF;stroke:#FFFFFF;stroke-width:2;stroke-miterlimit:10;}
	.st3{fill:#FFFFFF;stroke:#FFFFFF;stroke-width:0.25;stroke-miterlimit:10;}
	.st4{fill:#FFFFFF;}
	.st5{display:none;fill:none;stroke:#000000;stroke-width:5;stroke-miterlimit:10;}
	.st6{fill:none;}
	.st7{display:none;}
</style>
<path class="st0" d="M130.34,2.5C65.77,2.5,13.43,54.84,13.43,119.41s52.34,116.92,116.91,116.92s116.92-52.35,116.92-116.92
	S194.91,2.5,130.34,2.5z M206.66,180.45h-0.01c-5.52,6.87-11.96,12.97-19.13,18.12c-5.38,3.87-11.17,7.2-17.29,9.92
	c-2.79,1.24-5.65,2.36-8.57,3.33v1.44h-4.71c-8.34,2.34-17.14,3.58-26.23,3.58c-53.8,0-97.42-43.62-97.42-97.43
	c0-27.42,11.34-52.21,29.58-69.9c0,0,0,0,0.01-0.01c4.43-4.31,9.27-8.2,14.46-11.59c5.31-3.49,10.97-6.47,16.93-8.87
	c4.54-1.84,9.24-3.34,14.09-4.47c-10.29,1.01-20.47,3.18-30.43,6.8c-1.56,0.57-2.89,0.34-3.9-0.33c-0.06,0-0.12,0.01-0.19,0.01
	c-6.44,0-6.43-10,0-10c0.81,0,1.52,0.16,2.13,0.43c34.18-12.19,71.37-8.19,105.82,0.81c6.23,1.63,3.57,11.27-2.66,9.65
	c-2.95-0.77-5.93-1.51-8.91-2.19v0.59c16.56,7.35,30.69,19.19,40.84,33.97c0.83,1.19,1.62,2.4,2.38,3.63h2.8v4.78
	c0.67,1.23,1.32,2.47,1.93,3.72h0.54v1.12c6.05,12.68,9.43,26.87,9.43,41.85C228.15,142.52,220.11,163.75,206.66,180.45z"/>
<path class="st1" d="M228.15,119.41c0,23.11-8.04,44.34-21.49,61.04h-0.01c-5.52,6.87-11.96,12.97-19.13,18.12
	c-5.38,3.87-11.17,7.2-17.29,9.92c-2.79,1.24-5.65,2.36-8.57,3.33v1.44h-4.71c-8.34,2.34-17.14,3.58-26.23,3.58
	c-53.8,0-97.42-43.62-97.42-97.43c0-27.42,11.34-52.21,29.58-69.9c0,0,0,0,0.01-0.01c4.43-4.31,9.27-8.2,14.46-11.59
	c5.31-3.49,10.97-6.47,16.93-8.87c4.54-1.84,9.24-3.34,14.09-4.47c-10.29,1.01-20.47,3.18-30.43,6.8c-1.56,0.57-2.89,0.34-3.9-0.33
	c-0.06,0-0.12,0.01-0.19,0.01c-6.44,0-6.43-10,0-10c0.81,0,1.52,0.16,2.13,0.43c34.18-12.19,71.37-8.19,105.82,0.81
	c6.23,1.63,3.57,11.27-2.66,9.65c-2.95-0.77-5.93-1.51-8.91-2.19v0.59c16.56,7.35,30.69,19.19,40.84,33.97
	c0.83,1.19,1.62,2.4,2.38,3.63h2.8v4.78c0.67,1.23,1.32,2.47,1.93,3.72h0.54v1.12C224.77,90.24,228.15,104.43,228.15,119.41z"/>
<path class="st1" d="M228.15,119.41c0,23.11-8.04,44.34-21.49,61.04h-0.01c-5.52,6.87-11.96,12.97-19.13,18.12
	c-5.38,3.87-11.17,7.2-17.29,9.92c-2.79,1.24-5.65,2.36-8.57,3.33c-1.55,0.52-3.12,1-4.71,1.44c-8.34,2.34-17.14,3.58-26.23,3.58
	c-53.8,0-97.42-43.62-97.42-97.43c0-27.42,11.34-52.21,29.58-69.9c0,0,0,0,0.01-0.01c4.43-4.31,9.27-8.2,14.46-11.59
	c5.31-3.49,10.97-6.47,16.93-8.87c4.54-1.84,9.24-3.34,14.09-4.47c7.18-1.69,14.66-2.58,22.35-2.58c8.28,0,16.32,1.03,23.99,2.98
	c0.34,0.08,0.67,0.17,1,0.26c3.61,0.95,7.13,2.1,10.56,3.45c0.33,0.13,0.67,0.26,1,0.41c0.99,0.39,1.98,0.81,2.96,1.25
	c16.56,7.35,30.69,19.19,40.84,33.97c0.83,1.19,1.62,2.4,2.38,3.63c0.98,1.56,1.92,3.16,2.8,4.78c0.67,1.23,1.32,2.47,1.93,3.72
	c0.19,0.37,0.37,0.75,0.54,1.12C224.77,90.24,228.15,104.43,228.15,119.41z"/>
<rect x="104.29" y="64.31" class="st2" width="106.78" height="17.81"/>
<rect x="151.27" y="28.68" class="st2" width="18.96" height="179.81"/>
<path class="st1" d="M206.65,180.45c-13.17-1.76-25.32-4.15-36.42-7.21c-6.71-1.83-13.03-3.92-18.96-6.25
	C94.41,144.7,73.41,99.97,94.28,29.04c0.11-0.38,0.22-0.76,0.34-1.15"/>
<path class="st1" d="M77.52,37.28c-26.84,96.56,13.97,147.53,110,161.3"/>
<path class="st1" d="M158.45,212.61c-2.76-0.46-5.47-0.97-8.12-1.52c-77.1-15.92-109.46-67.24-87.45-161.58"/>
<path class="st1" d="M63.12,48.48c-0.08,0.34-0.16,0.68-0.23,1.02"/>
<rect x="150.33" y="209.29" class="st3" width="11.33" height="3.97"/>
<rect x="203.81" y="67.94" class="st4" width="12.44" height="15.18"/>
<rect x="208.09" y="76.44" class="st4" width="10.63" height="6.68"/>
<rect x="150.27" y="24.97" class="st4" width="5.43" height="5.84"/>
<rect x="-87.99" y="370.64" class="st6" width="459.51" height="240.18"/>
<text transform="matrix(1 0 0 1 45.1628 380.964)" class="st7" style="font-family:'amemuchigothic-06'; font-size:12px;">MBMUKOGAWA CHRIST CHURCH</text>
<polygon class="st5" points="204.61,181.77 207.82,182.05 205.88,185.63 "/>
<path id="SVGID_x5F_1_x5F_" class="st6" d="M-11.62,163.66c82.01,138.75,170.14,125.64,262.81,0"/>
<text class="st7"><textPath  xlink:href="#SVGID_x5F_1_x5F_" startOffset="12.305%"  style="display:inline;">
<tspan  style="font-family:'amemuchigothic-06'; font-size:19.3641px;">MB MUKOGAWA CHURCH</tspan></textPath>
</text>
<ellipse class="st6" cx="129.59" cy="135.9" rx="129.59" ry="113.91"/>
<path class="st4" d="M179.14,31.94c-2.95-0.77-5.93-1.51-8.91-2.19c-0.99-0.23-1.97-0.45-2.96-0.66c-0.62-0.15-1.24-0.28-1.86-0.41
	c-3.22-0.68-6.45-1.31-9.7-1.87c-1.81-0.31-3.63-0.6-5.44-0.86c-13.93-2.05-28.01-2.76-41.9-1.38c-10.29,1.01-20.47,3.18-30.43,6.8
	c-1.56,0.57-2.89,0.34-3.9-0.33c-0.06,0-0.12,0.01-0.19,0.01c-6.44,0-6.43-10,0-10c0.81,0,1.52,0.16,2.13,0.43
	c34.18-12.19,71.37-8.19,105.82,0.81C188.03,23.92,185.37,33.56,179.14,31.94z"/>
</svg>
