<?xml version="1.0" encoding="utf-8"?>
<!-- Generator: Adobe Illustrator 23.0.3, SVG Export Plug-In . SVG Version: 6.00 Build 0)  -->
<svg version="1.1" id="レイヤー_2" xmlns="http://www.w3.org/2000/svg" xmlns:xlink="http://www.w3.org/1999/xlink" x="0px"
	 y="0px" viewBox="0 0 259.18 249.81" style="enable-background:new 0 0 259.18 249.81;" xml:space="preserve">
<style type="text/css">
	.st0{display:none;stroke:#000000;stroke-width:5;stroke-miterlimit:10;}
	.st1{fill:none;}
	.st2{display:none;}
</style>
<path d="M129.31,245.42C63.47,245.42,9.9,191.85,9.9,126S63.47,6.59,129.31,6.59c65.85,0,119.42,53.57,119.42,119.42
	S195.16,245.42,129.31,245.42z M129.31,11.59C66.22,11.59,14.9,62.91,14.9,126s51.33,114.42,114.42,114.42
	c63.09,0,114.42-51.33,114.42-114.42S192.4,11.59,129.31,11.59z"/>
<path d="M129.69,225.92c-55.1,0-99.92-44.83-99.92-99.92c0-55.1,44.83-99.92,99.92-99.92S229.62,70.9,229.62,126
	C229.62,181.1,184.79,225.92,129.69,225.92z M129.69,31.08c-52.34,0-94.92,42.58-94.92,94.92s42.58,94.92,94.92,94.92
	c52.34,0,94.92-42.58,94.92-94.92S182.03,31.08,129.69,31.08z"/>
<g>
	<rect x="103.26" y="70.89" width="106.78" height="17.81"/>
	<path d="M211.04,89.71H102.26V69.89h108.78V89.71z M104.26,87.71h104.78V71.89H104.26V87.71z"/>
</g>
<g>
	<rect x="150.24" y="35.27" width="18.95" height="179.81"/>
	<path d="M170.19,216.08h-20.95V34.27h20.95V216.08z M151.24,214.08h16.95V36.27h-16.95V214.08z"/>
</g>
<path d="M205.3,189.51c-53.71-7.15-90.18-25.07-108.4-53.27c-16.5-25.53-18.42-60.01-5.7-102.49l4.79,1.43
	c-12.28,41.01-10.56,74.1,5.11,98.34c17.39,26.91,52.67,44.07,104.86,51.02L205.3,189.51z"/>
<path d="M186.13,207.64c-51.08-7.33-86.31-25.32-104.7-53.48C63.65,126.94,61.18,89.6,74.08,43.19l4.82,1.34
	c-12.5,44.96-10.24,80.93,6.72,106.89c17.57,26.91,51.63,44.15,101.22,51.27L186.13,207.64z"/>
<path d="M157,221.66c-41.2-6.94-70.57-23.24-87.3-48.46C51.04,145.08,47.66,105.14,59.66,54.5l4.87,1.15
	c-11.66,49.24-8.51,87.87,9.35,114.79c15.94,24.02,44.18,39.59,83.96,46.29L157,221.66z"/>
<g>
	<rect x="149.3" y="215.88" width="11.33" height="3.96"/>
	<path d="M160.75,219.97h-11.58v-4.21h11.58V219.97z M149.42,219.72h11.08v-3.71h-11.08V219.72z"/>
</g>
<rect x="202.77" y="74.53" width="12.45" height="15.17"/>
<rect x="207.05" y="83.03" width="10.63" height="6.68"/>
<rect x="149.24" y="31.56" width="5.43" height="5.84"/>
<rect x="-87.99" y="370.64" class="st1" width="459.51" height="240.18"/>
<text transform="matrix(1 0 0 1 45.1628 380.9641)" class="st2" style="font-family:'amemuchigothic-06'; font-size:12px;">MBMUKOGAWA CHRIST CHURCH</text>
<polygon class="st0" points="204.61,181.77 207.82,182.05 205.88,185.63 "/>
<path id="SVGID_x5F_1_x5F_" class="st1" d="M-11.62,163.66c82.01,138.75,170.14,125.64,262.81,0"/>
<text class="st2"><textPath  xlink:href="#SVGID_x5F_1_x5F_" startOffset="12.305%"  style="display:inline;">
<tspan  style="font-family:'amemuchigothic-06'; font-size:19.3641px;">MB MUKOGAWA CHURCH</tspan></textPath>
</text>
<ellipse class="st1" cx="128.56" cy="142.49" rx="129.59" ry="113.91"/>
</svg>
